<svg data-v-70b83f88="" version="1.0"
  xmlns="http://www.w3.org/2000/svg"
  xmlns:xlink="http://www.w3.org/1999/xlink" width="100%" height="100%" viewBox="0 0 340.000000 250.000000" preserveAspectRatio="xMidYMid meet" color-interpolation-filters="sRGB" style="margin: auto;">
  <rect data-v-70b83f88="" x="0" y="0" width="100%" height="100%" fill="#ffffff" fill-opacity="0" class="background"></rect>
  <rect data-v-70b83f88="" x="0" y="0" width="100%" height="100%" fill="url(#watermark)" fill-opacity="1" class="watermarklayer"></rect>
  <g data-v-70b83f88="" class="iconmbgsvg" transform="translate(81.2550048828125,66.86467361450195)">
    <g fill="#000000" hollow-target="textNormalTran">
      <g opacity="1" transform="matrix(1,0,0,1,32.4949951171875,0)">
        <g>
          <rect fill="#000000" fill-opacity="0" stroke-width="2" x="0" y="0" width="112.5" height="116.27065742013498" class="image-rect"></rect>
          <svg x="0" y="0" width="112.5" height="116.27065742013498" filtersec="colorsb2138743234" class="image-svg-svg primary" style="overflow: visible;">
            <svg xmlns="http://www.w3.org/2000/svg" viewBox="0 0 107.41999816894531 111.02000427246094">
              <g fill-rule="evenodd">
                <path fill="#03cfff" d="M38.83 41.56L59.86 5.15l47.56 55.5-42.44 50.37L85.4 68.45 38.83 41.56z"></path>
                <path fill="#4a61fc" d="M68.59 69.45l-21.02 36.41L0 50.37 42.44 0 22.02 42.57l46.57 26.88z"></path>
              </g>
            </svg>
          </svg>
        </g>
      </g>
      <g transform="translate(0,38.62532615661621)">
        <g data-gra="path-name" fill-rule="" class="tp-name" opacity="1" transform="matrix(1,0,0,1,0,0)">
          <g transform="scale(1)">
            <g>
              <path d="M1.44-13.83C1.44-4.64 6.46 0.43 13.35 0.43 16.76 0.43 19.43-0.64 21.41-2.78L21.41 0 32.19 0 32.19-5.44 28.67-5.44 28.67-27.44 21.41-27.44 21.41-24.61C19.54-26.8 16.81-27.86 13.35-27.86 6.46-27.86 1.44-22.79 1.44-13.83ZM8.91-13.67C8.91-18.58 11.69-21.41 15.53-21.41 18.31-21.41 20.55-19.75 21.41-16.98L21.41-10.2C20.6-7.47 18.31-5.82 15.53-5.82 11.69-5.82 8.91-8.75 8.91-13.67ZM34.38-27.44L34.38-22.05 37.95-22.05 37.95-5.44 34.38-5.44 34.38 0 48.79 0 48.79-5.44 45.21-5.44 45.21-27.44ZM36.03-34.7C36.03-31.98 38.06-30.69 41.26-30.69 44.47-30.69 46.55-31.98 46.55-34.7 46.55-37.31 44.47-38.59 41.26-38.59 38.06-38.59 36.03-37.31 36.03-34.7ZM51.67-12.28L66.46-12.28 66.46-17.56 51.67-17.56ZM70.46-27.44L70.46-22.05 74.04-22.05 74.04-5.44 70.46-5.44 70.46 0 84.88 0 84.88-5.44 81.3-5.44 81.3-27.44ZM72.12-34.7C72.12-31.98 74.15-30.69 77.35-30.69 80.55-30.69 82.63-31.98 82.63-34.7 82.63-37.31 80.55-38.59 77.35-38.59 74.15-38.59 72.12-37.31 72.12-34.7ZM86.32-13.83C86.32-4.64 91.33 0.43 98.22 0.43 101.48 0.43 104.31-0.75 106.39-2.94L106.39 0 117.12 0 117.12-5.44 113.65-5.44 113.65-37.69 102.86-37.69 102.86-32.3 106.39-32.3 106.39-24.45C104.41-26.74 101.58-27.86 98.22-27.86 91.33-27.86 86.32-22.79 86.32-13.83ZM93.79-13.67C93.79-18.58 96.57-21.41 100.41-21.41 103.35-21.41 105.59-19.7 106.39-16.76L106.39-10.41C105.59-7.47 103.24-5.82 100.41-5.82 96.57-5.82 93.79-8.75 93.79-13.67ZM118.61-13.83C118.61-4.64 124.38 0.43 132.65 0.43 137.62 0.43 141.09-1.12 143.91-3.52L142.21-9.23C139.91-7.37 137.56-5.87 134.2-5.87 129.93-5.87 127.31-7.95 126.41-11.37L145.2-11.37C145.25-12.17 145.3-13.77 145.3-14.47 145.3-22.31 141.25-27.86 132.49-27.86 124.54-27.86 118.61-22.79 118.61-13.83ZM126.19-15.69C126.78-19.59 129.29-21.99 132.7-21.99 137.14-21.99 139.22-18.9 139.22-15.69ZM148.19-13.83C148.19-4.64 153.2 0.43 160.09 0.43 163.51 0.43 166.17-0.64 168.15-2.78L168.15 0 178.93 0 178.93-5.44 175.41-5.44 175.41-27.44 168.15-27.44 168.15-24.61C166.28-26.8 163.56-27.86 160.09-27.86 153.2-27.86 148.19-22.79 148.19-13.83ZM155.66-13.67C155.66-18.58 158.43-21.41 162.28-21.41 165.05-21.41 167.3-19.75 168.15-16.98L168.15-10.2C167.35-7.47 165.05-5.82 162.28-5.82 158.43-5.82 155.66-8.75 155.66-13.67Z" transform="translate(-1.440000057220459, 38.59000015258789)"></path>
            </g>
          </g>
        </g>
      </g>
    </g>
  </g>
  <defs v-gra="od"></defs>
</svg>